<?xml version="1.0" encoding="UTF-8" standalone="no"?>
<svg width="140px" height="141px" viewBox="0 0 140 141" version="1.1" xmlns="http://www.w3.org/2000/svg" xmlns:xlink="http://www.w3.org/1999/xlink" xmlns:sketch="http://www.bohemiancoding.com/sketch/ns">
    <!-- Generator: bin/sketchtool 1.4 (305) - http://www.bohemiancoding.com/sketch -->
    <title>Assets/South_LP/Desktop/Icon_Horeca</title>
    <desc>Created with bin/sketchtool.</desc>
    <defs></defs>
    <g id="Page-1" stroke="none" stroke-width="1" fill="none" fill-rule="evenodd" sketch:type="MSPage">
        <g id="Design/South_LP" sketch:type="MSArtboardGroup" transform="translate(-330.000000, -4159.000000)" fill="#FF0000">
            <g id="Assets/South_LP/Desktop/Icon_Horeca" sketch:type="MSLayerGroup" transform="translate(330.000000, 4159.793900)">
                <path d="M68.300411,81.8612537 L68.300411,107.9596 L53.1525471,107.9596 C52.2274868,107.9596 51.4180589,108.778831 51.4180589,109.715094 C51.4180589,110.651358 52.2274868,111.470588 53.1525471,111.470588 L87.0328839,111.470588 C87.9579443,111.470588 88.7673722,110.651358 88.7673722,109.715094 C88.7673722,108.778831 87.9579443,107.9596 87.0328839,107.9596 L71.7693875,107.9596 L71.7693875,81.8612537 L99.5211992,48.0387332 C99.9837294,47.5706014 100.099362,46.7513708 99.7524643,46.1662061 C99.4055666,45.5810414 98.8274039,45.1129096 98.1336086,45.1129096 L87.3797816,45.1129096 L96.3991204,35.98434 C97.0929157,35.2821424 97.0929157,34.2288459 96.3991204,33.5266482 C95.7053251,32.8244506 94.6646321,32.8244506 93.9708369,33.5266482 L82.5232145,45.1129096 L41.8205574,45.1129096 C41.1267621,45.1129096 40.5485993,45.4640084 40.2017017,46.1662061 C39.854804,46.8684037 39.9704366,47.4535685 40.4329668,48.0387332 L68.300411,81.8612537 L68.300411,81.8612537 Z M75.4696291,59.8590604 C75.4696291,62.784884 73.0413455,65.2425758 70.1505318,65.2425758 C67.2597181,65.2425758 64.8314346,62.784884 64.8314346,59.8590604 C64.8314346,56.9332368 67.2597181,54.475545 70.1505318,54.475545 C73.0413455,54.475545 75.4696291,56.9332368 75.4696291,59.8590604 L75.4696291,59.8590604 Z M62.9813138,65.0085099 L62.7500487,65.2425758 C62.0562534,65.9447734 62.0562534,66.9980699 62.7500487,67.7002676 C63.0969463,68.0513664 63.5594765,68.1683994 64.0220067,68.1683994 C64.4845369,68.1683994 64.9470671,68.0513664 65.2939648,67.7002676 L65.5252299,67.4662017 C66.9128204,68.2854323 68.5316761,68.870597 70.1505318,68.870597 C75.0070989,68.870597 78.9386055,64.8914769 78.9386055,59.9760933 L78.9386055,59.1568627 L86.1078235,59.1568627 L70.0348993,78.4672983 L53.961975,59.0398298 L61.3624581,59.0398298 L61.3624581,59.8590604 C61.3624581,61.7315875 61.9406209,63.4870816 62.9813138,65.0085099 L62.9813138,65.0085099 Z M94.5489996,48.7409308 L88.9986373,55.5288415 L77.78228,55.5288415 C77.6666475,55.4118086 77.6666475,55.2947756 77.5510149,55.1777427 L83.9108051,48.7409308 L94.5489996,48.7409308 L94.5489996,48.7409308 Z M78.9386055,48.7409308 L75.1227314,52.6030179 C73.7351408,51.5497215 72.0006526,50.9645567 70.0348993,50.9645567 C66.7971879,50.9645567 63.9063742,52.8370838 62.403151,55.5288415 L51.0711613,55.5288415 L45.5207989,48.7409308 L78.9386055,48.7409308 L78.9386055,48.7409308 Z" id="Shape" sketch:type="MSShapeGroup"></path>
            </g>
        </g>
    </g>
</svg>