<?xml version="1.0" encoding="UTF-8" standalone="no"?>
<svg width="140px" height="141px" viewBox="0 0 140 141" version="1.1" xmlns="http://www.w3.org/2000/svg" xmlns:xlink="http://www.w3.org/1999/xlink" xmlns:sketch="http://www.bohemiancoding.com/sketch/ns">
    <!-- Generator: bin/sketchtool 1.4 (305) - http://www.bohemiancoding.com/sketch -->
    <title>Assets/South_LP/Desktop/Icon_Phone</title>
    <desc>Created with bin/sketchtool.</desc>
    <defs></defs>
    <g id="Page-1" stroke="none" stroke-width="1" fill="none" fill-rule="evenodd" sketch:type="MSPage">
        <g id="Design/South_LP" sketch:type="MSArtboardGroup" transform="translate(-970.000000, -4159.000000)" fill="#FF0000">
            <g id="Assets/South_LP/Desktop/Icon_Phone" sketch:type="MSLayerGroup" transform="translate(970.000000, 4159.793900)">
                <path d="M53.4076969,103.151768 L53.4076969,103.151768 C50.6316023,103.151768 48.0097352,102.380631 45.6963231,100.91547 C41.5321812,98.2936025 39.3729965,95.2861667 39.2958828,92.1245034 C39.0645415,87.0349966 43.8455933,82.6395135 49.0122138,78.6295991 C50.0918062,77.8584617 51.4027397,77.3957793 52.8679008,77.3957793 C56.2609053,77.3957793 59.9623647,79.4778502 62.3528906,82.7166272 C63.3553692,82.6395135 65.8230089,80.2489876 66.67126,79.3236227 L76.8502735,69.1446092 C79.0865719,66.9083108 80.243278,65.4431498 80.243278,64.8262399 C77.3900697,62.7441689 75.4622262,59.6596194 74.9995438,56.5750698 C74.6910888,54.5701126 75.0766575,52.7964966 76.1562499,51.4855631 C80.0119368,46.3960563 84.3303062,41.769232 89.2655854,41.769232 C92.5814762,41.769232 95.6660257,43.9284167 98.4421203,48.2467861 C103.685855,56.4208424 99.8301676,67.0625383 87.029287,79.8634189 L77.3129559,89.57975 C73.9970652,92.8956408 63.7409379,103.151768 53.4076969,103.151768 L53.4076969,103.151768 Z M52.8679008,80.5574426 C52.0196496,80.5574426 51.4027397,80.7887838 50.8629436,81.1743525 C46.5445742,84.4902432 42.1490911,88.3459302 42.3033186,92.0473896 C42.3804323,94.2065743 44.0769346,96.365759 47.3157116,98.3707162 C49.1664413,99.5274223 51.1713985,100.144332 53.3305832,100.144332 C62.3528906,100.144332 71.9149942,90.5822286 75.0766575,87.4205653 L84.7929886,77.7042342 C96.4371631,66.0600597 100.138623,56.7292973 95.7431395,49.9432883 C93.5839548,46.6273975 91.4247701,44.9308953 89.1884717,44.9308953 C85.4870122,44.9308953 81.708439,49.2492647 78.469662,53.4905203 C77.8527521,54.3387714 77.8527521,55.4954775 77.9298658,56.2666149 C78.2383208,58.5029133 79.7805956,60.8934392 81.9397803,62.5128277 C82.7109176,63.0526239 83.0964863,63.8237613 83.1736001,64.6720124 C83.3278276,66.8311971 81.2457566,69.1446092 78.8552307,71.5351351 L68.9075584,81.5599212 C66.67126,83.8733333 64.4349616,85.8782905 62.3528906,85.8782905 C61.350412,85.8782905 60.5021609,85.4156081 59.9623647,84.6444707 C58.111635,82.1768311 55.2584267,80.5574426 52.8679008,80.5574426 Z M56.4922465,68.7590405 C55.6439954,68.7590405 54.9499717,68.0650169 54.9499717,67.2167658 C54.9499717,61.8188041 59.3454548,57.3462072 64.8205303,57.3462072 C65.6687814,57.3462072 66.362805,58.0402309 66.362805,58.888482 C66.362805,59.7367331 65.6687814,60.4307568 64.8205303,60.4307568 C61.1190708,60.4307568 58.0345213,63.4381926 58.0345213,67.2167658 C58.0345213,68.1421306 57.3404976,68.7590405 56.4922465,68.7590405 Z M51.0942848,67.9879032 C50.2460337,67.9879032 49.55201,67.2938795 49.55201,66.4456284 C49.55201,58.5029133 56.0295641,52.0253592 63.9722791,52.0253592 C64.8205303,52.0253592 65.5145539,52.7193829 65.5145539,53.567634 C65.5145539,54.4158851 64.8205303,55.1099088 63.9722791,55.1099088 C57.7260663,55.1099088 52.6365596,60.1994155 52.6365596,66.4456284 C52.6365596,67.2938795 52.0196496,67.9879032 51.0942848,67.9879032 Z M45.7734368,67.2167658 C44.9251857,67.2167658 44.231162,66.5227421 44.231162,65.674491 C44.231162,55.1870225 52.7136733,46.7045113 63.2011418,46.7045113 C64.0493929,46.7045113 64.7434165,47.3985349 64.7434165,48.2467861 C64.7434165,49.0950372 64.0493929,49.7890608 63.2011418,49.7890608 C54.4101755,49.7890608 47.3157116,56.9606385 47.3157116,65.674491 C47.3157116,66.5227421 46.6216879,67.2167658 45.7734368,67.2167658 Z" id="Shape" sketch:type="MSShapeGroup"></path>
            </g>
        </g>
    </g>
</svg>