<?xml version="1.0" encoding="UTF-8" standalone="no"?>
<svg width="140px" height="141px" viewBox="0 0 140 141" version="1.1" xmlns="http://www.w3.org/2000/svg" xmlns:xlink="http://www.w3.org/1999/xlink" xmlns:sketch="http://www.bohemiancoding.com/sketch/ns">
    <!-- Generator: bin/sketchtool 1.4 (305) - http://www.bohemiancoding.com/sketch -->
    <title>Assets/South_LP/Desktop/Icon_Camera</title>
    <desc>Created with bin/sketchtool.</desc>
    <defs></defs>
    <g id="Page-1" stroke="none" stroke-width="1" fill="none" fill-rule="evenodd" sketch:type="MSPage">
        <g id="Design/South_LP" sketch:type="MSArtboardGroup" transform="translate(-650.000000, -4159.000000)" fill="#FF0000">
            <g id="Assets/South_LP/Desktop/Icon_Camera" sketch:type="MSLayerGroup" transform="translate(650.000000, 4159.793900)">
                <path d="M90.5849388,66.2086817 C91.6950741,63.9737073 92.3365264,61.4667131 92.3365264,58.8071671 C92.3365264,49.5934118 84.8412753,42.0981607 75.625682,42.0981607 C69.0733107,42.0981607 63.405004,45.8972495 60.6682632,51.4019766 C57.9315224,45.8972495 52.2632158,42.0981607 45.7108444,42.0981607 C36.4970891,42.0981607 29,49.5934118 29,58.8071671 C29,62.7514557 30.3803172,66.3759372 32.6759447,69.2376601 L32.6759447,100.459296 C32.6759447,102.179638 34.0764796,103.580173 35.7986596,103.580173 L40.8089722,103.580173 C40.8310279,103.787864 40.8567595,103.999231 40.9155746,104.20876 C40.9449822,104.315362 40.9854176,104.414612 41.0332048,104.512025 L43.2056881,108.788987 C43.7184824,110.331045 45.2403235,111.470588 46.8209797,111.470588 L78.2631723,111.470588 C79.6324617,111.470588 80.9594777,110.489111 81.4428644,109.149229 L84.0785168,104.591058 C84.192471,104.394395 84.264152,104.175676 84.2880456,103.951443 C84.3009114,103.826461 84.2898836,103.703317 84.2917215,103.580173 L89.2854924,103.580173 C91.0076724,103.580173 92.4063694,102.1778 92.4063694,100.459296 L92.4063694,69.0391591 C92.4100453,67.781986 91.6583146,66.7030962 90.5849388,66.2086817 L90.5849388,66.2086817 Z M75.62752,45.7722674 C82.8139918,45.7722674 88.6624197,51.6188573 88.6624197,58.8053291 C88.6624197,65.9936389 82.8139918,71.8402289 75.62752,71.8402289 C68.4392102,71.8402289 62.5926202,65.9936389 62.5926202,58.8053291 C62.5926202,51.6188573 68.4392102,45.7722674 75.62752,45.7722674 L75.62752,45.7722674 Z M45.7126824,45.7722674 C52.8991542,45.7722674 58.7457442,51.6188573 58.7457442,58.8053291 C58.7457442,65.9936389 52.8991542,71.8402289 45.7126824,71.8402289 C38.5243726,71.8402289 32.6777826,65.9936389 32.6777826,58.8053291 C32.6796206,51.6188573 38.5262106,45.7722674 45.7126824,45.7722674 L45.7126824,45.7722674 Z M78.5315163,107.658634 C78.4635113,107.776264 78.4102101,107.903084 78.3716127,108.03358 C78.3550709,108.092395 78.2760381,108.171428 78.2227369,108.198997 L46.8228177,108.198997 C46.6904837,108.198997 46.3743524,107.989469 46.3045095,107.737666 C46.2751019,107.629226 46.2365045,107.529976 46.1868792,107.432563 L44.2588463,103.578335 L80.8877968,103.578335 L78.5315163,107.658634 L78.5315163,107.658634 Z M88.7341007,99.9023904 L36.3555653,99.9023904 L36.3555653,72.6415848 C39.027977,74.4538255 42.2499425,75.5161736 45.7145204,75.5161736 C52.2668917,75.5161736 57.9333604,71.7152468 60.6719392,66.2123576 C63.40868,71.7170848 69.0769866,75.5161736 75.629358,75.5161736 C80.8216298,75.5161736 85.4698618,73.1341614 88.5337617,69.4067535 C88.6017667,69.4379991 88.6624197,69.4839484 88.7341007,69.507842 L88.7341007,99.9023904 Z M118.259288,66.052454 C117.794281,65.7510266 117.209806,65.7050773 116.702526,65.9293099 L98.5966602,73.9704388 C98.008509,74.2332689 97.6280488,74.8177441 97.6280488,75.4647103 L97.6280488,94.0337448 C97.6280488,94.680711 98.008509,95.2670242 98.5966602,95.5280163 L116.702526,103.567307 C116.91573,103.662882 117.141801,103.708831 117.366034,103.708831 C117.676651,103.708831 117.989106,103.620608 118.25745,103.444163 C118.720619,103.142736 118.999991,102.626265 118.999991,102.073036 L118.999991,67.4235814 C119.001829,66.8685138 118.722457,66.3538815 118.259288,66.052454 Z M115.732076,99.5568516 L100.89964,92.9695588 L100.89964,76.5252204 L115.732076,69.9379275 L115.732076,99.5568516 Z M45.6612192,63.0418554 C48.000988,63.0418554 49.8977454,61.145098 49.8977454,58.8053291 C49.8977454,56.4655603 48.000988,54.5688029 45.6612192,54.5688029 C43.3214503,54.5688029 41.4246929,56.4655603 41.4246929,58.8053291 C41.4246929,61.145098 43.3214503,63.0418554 45.6612192,63.0418554 Z M76.7008958,63.0418554 C79.0406647,63.0418554 80.937422,61.145098 80.937422,58.8053291 C80.937422,56.4655603 79.0406647,54.5688029 76.7008958,54.5688029 C74.361127,54.5688029 72.4643696,56.4655603 72.4643696,58.8053291 C72.4643696,61.145098 74.361127,63.0418554 76.7008958,63.0418554 Z M95.1320823,74.1395323 C94.2296379,74.1395323 93.496287,74.8710453 93.496287,75.7753277 L93.496287,93.7249654 C93.496287,94.6274098 94.2277999,95.3607608 95.1320823,95.3607608 C96.0363647,95.3607608 96.7678777,94.6292478 96.7678777,93.7249654 L96.7678777,75.7753277 C96.7678777,74.8710453 96.0345267,74.1395323 95.1320823,74.1395323 Z M62.7709036,78.4532533 L43.2626653,78.4532533 C41.2353818,78.4532533 39.5867206,80.1019145 39.5867206,82.129198 L39.5867206,93.419862 C39.5867206,95.4471455 41.2353818,97.0958067 43.2626653,97.0958067 L62.7690656,97.0958067 C64.7963491,97.0958067 66.4450102,95.4471455 66.4450102,93.419862 L66.4450102,82.129198 C66.4468482,80.1037525 64.798187,78.4532533 62.7709036,78.4532533 Z M43.2626653,93.419862 L43.2626653,82.129198 L62.7690656,82.129198 L62.7709036,93.419862 L43.2626653,93.419862 L43.2626653,93.419862 Z" id="Shape" sketch:type="MSShapeGroup"></path>
            </g>
        </g>
    </g>
</svg>